<svg xmlns="http://www.w3.org/2000/svg" viewBox="0 0 100 100"><path d="M50 2.4C23 2.4 1.2 24.2 1.2 51.2c0 21.6 14 39.9 33.4 46.3 2.4.4 3.3-1.1 3.3-2.4 0-1.2 0-4.2-.1-8.3-13.6 3-16.4-6.5-16.4-6.5-2.2-5.6-5.4-7.1-5.4-7.1-4.4-3 .3-3 .3-3 4.9.3 7.5 5 7.5 5 4.4 7.5 11.4 5.3 14.2 4.1.4-3.2 1.7-5.3 3.1-6.5-10.8-1.2-22.2-5.4-22.2-24.1 0-5.3 1.9-9.7 5-13.1-.5-1.2-2.2-6.2.5-12.9 0 0 4.1-1.3 13.4 5C41.7 26.6 45.9 26 50 26s8.3.6 12.2 1.6c9.3-6.3 13.4-5 13.4-5 2.7 6.7 1 11.7.5 12.9 3.1 3.4 5 7.8 5 13.1 0 18.8-11.4 22.9-22.3 24.1 1.8 1.5 3.3 4.5 3.3 9 0 6.5-.1 11.8-.1 13.4 0 1.3.9 2.8 3.4 2.3 19.4-6.5 33.4-24.8 33.4-46.3C98.8 24.2 77 2.4 50 2.4z" fill-rule="evenodd" clip-rule="evenodd" fill="#000"/></svg>